<mxfile host="65bd71144e">
    <diagram id="M-Hy3K6ZXJVWR8lc1Yho" name="Page-1">
        <mxGraphModel dx="832" dy="571" grid="1" gridSize="10" guides="1" tooltips="1" connect="1" arrows="1" fold="1" page="1" pageScale="1" pageWidth="850" pageHeight="1100" math="0" shadow="0">
            <root>
                <mxCell id="0"/>
                <mxCell id="1" parent="0"/>
                <mxCell id="2" value="Advisor" style="swimlane;childLayout=stackLayout;resizeParent=1;resizeParentMax=0;startSize=20;html=1;" vertex="1" parent="1">
                    <mxGeometry x="230" y="50" width="820" height="420" as="geometry"/>
                </mxCell>
                <mxCell id="3" value="Controller" style="swimlane;startSize=20;html=1;" vertex="1" parent="2">
                    <mxGeometry y="20" width="200" height="400" as="geometry"/>
                </mxCell>
                <mxCell id="4" style="edgeStyle=orthogonalEdgeStyle;html=1;" edge="1" parent="3" source="5" target="8">
                    <mxGeometry relative="1" as="geometry">
                        <mxPoint x="54.99999999999977" y="149.9999999999999" as="targetPoint"/>
                    </mxGeometry>
                </mxCell>
                <mxCell id="5" value="Initialize" style="rounded=0;whiteSpace=wrap;html=1;" vertex="1" parent="3">
                    <mxGeometry x="50" y="40" width="100" height="40" as="geometry"/>
                </mxCell>
                <mxCell id="6" value="ExportSpreadsheet" style="rounded=0;whiteSpace=wrap;html=1;" vertex="1" parent="3">
                    <mxGeometry x="40" y="265" width="120" height="40" as="geometry"/>
                </mxCell>
                <mxCell id="7" style="edgeStyle=orthogonalEdgeStyle;html=1;" edge="1" parent="3" source="8" target="6">
                    <mxGeometry relative="1" as="geometry">
                        <mxPoint x="54.99999999999977" y="190" as="sourcePoint"/>
                        <Array as="points"/>
                    </mxGeometry>
                </mxCell>
                <mxCell id="8" value="GenerateOverview(YearCustomer)" style="rounded=0;whiteSpace=wrap;html=1;" vertex="1" parent="3">
                    <mxGeometry x="10" y="160" width="180" height="40" as="geometry"/>
                </mxCell>
                <mxCell id="9" value="Business Logic" style="swimlane;startSize=20;html=1;" vertex="1" parent="2">
                    <mxGeometry x="200" y="20" width="330" height="400" as="geometry"/>
                </mxCell>
                <mxCell id="10" style="edgeStyle=orthogonalEdgeStyle;html=1;" edge="1" parent="9" source="24" target="19">
                    <mxGeometry relative="1" as="geometry">
                        <Array as="points">
                            <mxPoint x="180" y="180"/>
                            <mxPoint x="180" y="180"/>
                        </Array>
                        <mxPoint x="94.99999999999955" y="190" as="sourcePoint"/>
                    </mxGeometry>
                </mxCell>
                <mxCell id="11" style="edgeStyle=orthogonalEdgeStyle;html=1;" edge="1" parent="9" source="24" target="17">
                    <mxGeometry relative="1" as="geometry">
                        <Array as="points">
                            <mxPoint x="100" y="240"/>
                        </Array>
                        <mxPoint x="94.99999999999955" y="190" as="sourcePoint"/>
                    </mxGeometry>
                </mxCell>
                <mxCell id="12" style="edgeStyle=orthogonalEdgeStyle;html=1;" edge="1" parent="9" source="24" target="21">
                    <mxGeometry relative="1" as="geometry">
                        <Array as="points">
                            <mxPoint x="100" y="300"/>
                        </Array>
                        <mxPoint x="94.99999999999955" y="130" as="sourcePoint"/>
                    </mxGeometry>
                </mxCell>
                <mxCell id="14" style="edgeStyle=orthogonalEdgeStyle;html=1;" edge="1" parent="9" source="24" target="23">
                    <mxGeometry relative="1" as="geometry">
                        <Array as="points">
                            <mxPoint x="100" y="360"/>
                        </Array>
                        <mxPoint x="94.99999999999955" y="130" as="sourcePoint"/>
                    </mxGeometry>
                </mxCell>
                <mxCell id="15" style="edgeStyle=orthogonalEdgeStyle;html=1;" edge="1" parent="9" source="24" target="20">
                    <mxGeometry relative="1" as="geometry">
                        <mxPoint x="180" y="170" as="sourcePoint"/>
                        <Array as="points">
                            <mxPoint x="100" y="60"/>
                        </Array>
                    </mxGeometry>
                </mxCell>
                <mxCell id="16" style="edgeStyle=orthogonalEdgeStyle;html=1;" edge="1" parent="9" source="24" target="18">
                    <mxGeometry relative="1" as="geometry">
                        <Array as="points">
                            <mxPoint x="100" y="120"/>
                        </Array>
                        <mxPoint x="94.99999999999955" y="190" as="sourcePoint"/>
                    </mxGeometry>
                </mxCell>
                <mxCell id="17" value="SelectPrice" style="rounded=0;whiteSpace=wrap;html=1;" vertex="1" parent="9">
                    <mxGeometry x="209.99999999999955" y="220" width="100" height="40" as="geometry"/>
                </mxCell>
                <mxCell id="18" value="SelectDevice" style="rounded=0;whiteSpace=wrap;html=1;" vertex="1" parent="9">
                    <mxGeometry x="209.99999999999955" y="100" width="100" height="40" as="geometry"/>
                </mxCell>
                <mxCell id="19" value="SelectSurplus" style="rounded=0;whiteSpace=wrap;html=1;" vertex="1" parent="9">
                    <mxGeometry x="209.99999999999955" y="160" width="100" height="40" as="geometry"/>
                </mxCell>
                <mxCell id="20" value="SelectPeriod" style="rounded=0;whiteSpace=wrap;html=1;" vertex="1" parent="9">
                    <mxGeometry x="209.99999999999955" y="40" width="100" height="40" as="geometry"/>
                </mxCell>
                <mxCell id="21" value="CalculateRevenue" style="rounded=0;whiteSpace=wrap;html=1;" vertex="1" parent="9">
                    <mxGeometry x="209.99999999999955" y="280" width="100" height="40" as="geometry"/>
                </mxCell>
                <mxCell id="23" value="GenerateSpreadsheet" style="rounded=0;whiteSpace=wrap;html=1;" vertex="1" parent="9">
                    <mxGeometry x="200" y="340" width="120" height="40" as="geometry"/>
                </mxCell>
                <mxCell id="24" value="GenerateOverview(YearCustomer)" style="rounded=0;whiteSpace=wrap;html=1;" vertex="1" parent="9">
                    <mxGeometry x="10" y="160" width="180" height="40" as="geometry"/>
                </mxCell>
                <mxCell id="25" value="Repository" style="swimlane;startSize=20;html=1;" vertex="1" parent="2">
                    <mxGeometry x="530" y="20" width="140" height="400" as="geometry"/>
                </mxCell>
                <mxCell id="26" value="SelectPrice" style="rounded=0;whiteSpace=wrap;html=1;" vertex="1" parent="25">
                    <mxGeometry x="19.999999999999545" y="220" width="100" height="40" as="geometry"/>
                </mxCell>
                <mxCell id="27" value="SelectDevice" style="rounded=0;whiteSpace=wrap;html=1;" vertex="1" parent="25">
                    <mxGeometry x="19.999999999999545" y="100" width="100" height="40" as="geometry"/>
                </mxCell>
                <mxCell id="28" value="SelectSurplus" style="rounded=0;whiteSpace=wrap;html=1;" vertex="1" parent="25">
                    <mxGeometry x="19.999999999999545" y="160" width="100" height="40" as="geometry"/>
                </mxCell>
                <mxCell id="29" value="SelectPeriod" style="rounded=0;whiteSpace=wrap;html=1;" vertex="1" parent="25">
                    <mxGeometry x="19.999999999999545" y="40" width="100" height="40" as="geometry"/>
                </mxCell>
                <mxCell id="30" value="Model" style="swimlane;startSize=20;html=1;" vertex="1" parent="2">
                    <mxGeometry x="670" y="20" width="150" height="400" as="geometry"/>
                </mxCell>
                <mxCell id="31" value="Period" style="swimlane;fontStyle=0;childLayout=stackLayout;horizontal=1;startSize=30;horizontalStack=0;resizeParent=1;resizeParentMax=0;resizeLast=0;collapsible=1;marginBottom=0;whiteSpace=wrap;html=1;fontSize=12;" vertex="1" parent="30">
                    <mxGeometry x="10" y="40" width="130" height="40" as="geometry"/>
                </mxCell>
                <mxCell id="32" value="Device" style="swimlane;fontStyle=0;childLayout=stackLayout;horizontal=1;startSize=30;horizontalStack=0;resizeParent=1;resizeParentMax=0;resizeLast=0;collapsible=1;marginBottom=0;whiteSpace=wrap;html=1;fontSize=12;" vertex="1" parent="30">
                    <mxGeometry x="10" y="100" width="130" height="40" as="geometry"/>
                </mxCell>
                <mxCell id="33" value="Surplus" style="swimlane;fontStyle=0;childLayout=stackLayout;horizontal=1;startSize=30;horizontalStack=0;resizeParent=1;resizeParentMax=0;resizeLast=0;collapsible=1;marginBottom=0;whiteSpace=wrap;html=1;fontSize=12;" vertex="1" parent="30">
                    <mxGeometry x="10" y="160" width="130" height="40" as="geometry"/>
                </mxCell>
                <mxCell id="34" value="Price" style="swimlane;fontStyle=0;childLayout=stackLayout;horizontal=1;startSize=30;horizontalStack=0;resizeParent=1;resizeParentMax=0;resizeLast=0;collapsible=1;marginBottom=0;whiteSpace=wrap;html=1;fontSize=12;" vertex="1" parent="30">
                    <mxGeometry x="10" y="220" width="130" height="40" as="geometry"/>
                </mxCell>
                <mxCell id="35" style="edgeStyle=orthogonalEdgeStyle;html=1;" edge="1" parent="2" source="29" target="20">
                    <mxGeometry relative="1" as="geometry"/>
                </mxCell>
                <mxCell id="36" style="edgeStyle=orthogonalEdgeStyle;html=1;" edge="1" parent="2" source="27" target="18">
                    <mxGeometry relative="1" as="geometry"/>
                </mxCell>
                <mxCell id="37" style="edgeStyle=orthogonalEdgeStyle;html=1;" edge="1" parent="2" source="28" target="19">
                    <mxGeometry relative="1" as="geometry"/>
                </mxCell>
                <mxCell id="38" style="edgeStyle=orthogonalEdgeStyle;html=1;" edge="1" parent="2" source="26" target="17">
                    <mxGeometry relative="1" as="geometry"/>
                </mxCell>
                <mxCell id="39" style="edgeStyle=orthogonalEdgeStyle;html=1;" edge="1" parent="2" source="8" target="24">
                    <mxGeometry relative="1" as="geometry">
                        <mxPoint x="150" y="190" as="sourcePoint"/>
                        <mxPoint x="210" y="190" as="targetPoint"/>
                        <Array as="points"/>
                    </mxGeometry>
                </mxCell>
                <mxCell id="40" style="edgeStyle=orthogonalEdgeStyle;html=1;" edge="1" parent="2" source="34" target="26">
                    <mxGeometry relative="1" as="geometry"/>
                </mxCell>
                <mxCell id="41" style="edgeStyle=orthogonalEdgeStyle;html=1;" edge="1" parent="2" source="33" target="28">
                    <mxGeometry relative="1" as="geometry"/>
                </mxCell>
                <mxCell id="42" style="edgeStyle=orthogonalEdgeStyle;html=1;" edge="1" parent="2" source="32" target="27">
                    <mxGeometry relative="1" as="geometry"/>
                </mxCell>
                <mxCell id="43" style="edgeStyle=orthogonalEdgeStyle;html=1;" edge="1" parent="2" source="31" target="29">
                    <mxGeometry relative="1" as="geometry"/>
                </mxCell>
                <mxCell id="44" style="edgeStyle=none;html=1;" edge="1" parent="1" source="45" target="5">
                    <mxGeometry relative="1" as="geometry"/>
                </mxCell>
                <mxCell id="45" value="Advisor" style="shape=umlActor;verticalLabelPosition=bottom;verticalAlign=top;html=1;outlineConnect=0;" vertex="1" parent="1">
                    <mxGeometry x="180" y="100" width="30" height="60" as="geometry"/>
                </mxCell>
                <mxCell id="46" value="" style="ellipse;fillColor=strokeColor;" vertex="1" parent="1">
                    <mxGeometry x="180" y="340" width="30" height="30" as="geometry"/>
                </mxCell>
                <mxCell id="47" style="edgeStyle=orthogonalEdgeStyle;html=1;" edge="1" parent="1" source="6" target="46">
                    <mxGeometry relative="1" as="geometry"/>
                </mxCell>
            </root>
        </mxGraphModel>
    </diagram>
</mxfile>